<?xml version="1.0" encoding="utf-8" standalone="no"?>
<!DOCTYPE svg PUBLIC "-//W3C//DTD SVG 1.1//EN"
  "http://www.w3.org/Graphics/SVG/1.1/DTD/svg11.dtd">
<svg xmlns:xlink="http://www.w3.org/1999/xlink" width="223.2pt" height="221.76pt" viewBox="0 0 223.2 221.76" xmlns="http://www.w3.org/2000/svg" version="1.1">
 <metadata>
  <rdf:RDF xmlns:dc="http://purl.org/dc/elements/1.1/" xmlns:cc="http://creativecommons.org/ns#" xmlns:rdf="http://www.w3.org/1999/02/22-rdf-syntax-ns#">
   <cc:Work>
    <dc:type rdf:resource="http://purl.org/dc/dcmitype/StillImage"/>
    <dc:date>2025-06-25T04:56:36.319344</dc:date>
    <dc:format>image/svg+xml</dc:format>
    <dc:creator>
     <cc:Agent>
      <dc:title>Matplotlib v3.6.3, https://matplotlib.org/</dc:title>
     </cc:Agent>
    </dc:creator>
   </cc:Work>
  </rdf:RDF>
 </metadata>
 <defs>
  <style type="text/css">*{stroke-linejoin: round; stroke-linecap: butt}</style>
 </defs>
 <g id="figure_1">
  <g id="patch_1">
   <path d="M 0 221.76 
L 223.2 221.76 
L 223.2 0 
L 0 0 
L 0 221.76 
z
" style="fill: none"/>
  </g>
  <g id="axes_1">
   <g id="patch_2">
    <path d="M 111.6 217.3248 
C 140.012799 217.3248 167.265709 206.109104 187.356592 186.14784 
C 207.447475 166.186575 218.736 139.109491 218.736 110.88 
C 218.736 82.650509 207.447475 55.573425 187.356592 35.61216 
C 167.265709 15.650896 140.012799 4.4352 111.6 4.4352 
C 83.187201 4.4352 55.934291 15.650896 35.843408 35.61216 
C 15.752525 55.573425 4.464 82.650509 4.464 110.88 
C 4.464 139.109491 15.752525 166.186575 35.843408 186.14784 
C 55.934291 206.109104 83.187201 217.3248 111.6 217.3248 
L 111.6 217.3248 
z
" clip-path="url(#pde3a95ea78)" style="fill: none; stroke: #000000; stroke-width: 4; stroke-linejoin: miter"/>
   </g>
   <g id="patch_3">
    <path d="M 0 110.88 
L 0.447295 110.321598 
L 0.894589 109.763551 
L 1.341884 109.206212 
L 1.789178 108.649934 
L 2.236473 108.09507 
L 2.683768 107.541972 
L 3.131062 106.990991 
L 3.578357 106.442476 
L 4.025651 105.896776 
L 4.472946 105.354235 
L 4.92024 104.815199 
L 5.367535 104.280009 
L 5.81483 103.749004 
L 6.262124 103.222522 
L 6.709419 102.700895 
L 7.156713 102.184455 
L 7.604008 101.67353 
L 8.051303 101.168443 
L 8.498597 100.669514 
L 8.945892 100.177061 
L 9.393186 99.691395 
L 9.840481 99.212824 
L 10.287776 98.741652 
L 10.73507 98.278177 
L 11.182365 97.822694 
L 11.629659 97.375492 
L 12.076954 96.936853 
L 12.524248 96.507057 
L 12.971543 96.086375 
L 13.418838 95.675075 
L 13.866132 95.273417 
L 14.313427 94.881656 
L 14.760721 94.50004 
L 15.208016 94.128812 
L 15.655311 93.768207 
L 16.102605 93.418453 
L 16.5499 93.079772 
L 16.997194 92.75238 
L 17.444489 92.436483 
L 17.891784 92.132283 
L 18.339078 91.839971 
L 18.786373 91.559734 
L 19.233667 91.291749 
L 19.680962 91.036186 
L 20.128257 90.793207 
L 20.575551 90.562966 
L 21.022846 90.345609 
L 21.47014 90.141274 
L 21.917435 89.950091 
L 22.364729 89.77218 
L 22.812024 89.607655 
L 23.259319 89.456621 
L 23.706613 89.319171 
L 24.153908 89.195395 
L 24.601202 89.085371 
L 25.048497 88.989167 
L 25.495792 88.906846 
L 25.943086 88.838459 
L 26.390381 88.784049 
L 26.837675 88.743652 
L 27.28497 88.717293 
L 27.732265 88.704989 
L 28.179559 88.706747 
L 28.626854 88.722566 
L 29.074148 88.752436 
L 29.521443 88.796339 
L 29.968737 88.854246 
L 30.416032 88.926121 
L 30.863327 89.011919 
L 31.310621 89.111584 
L 31.757916 89.225053 
L 32.20521 89.352255 
L 32.652505 89.493109 
L 33.0998 89.647526 
L 33.547094 89.815407 
L 33.994389 89.996647 
L 34.441683 90.19113 
L 34.888978 90.398732 
L 35.336273 90.619323 
L 35.783567 90.852763 
L 36.230862 91.098903 
L 36.678156 91.357587 
L 37.125451 91.628652 
L 37.572745 91.911924 
L 38.02004 92.207226 
L 38.467335 92.514369 
L 38.914629 92.833158 
L 39.361924 93.163392 
L 39.809218 93.504862 
L 40.256513 93.857349 
L 40.703808 94.220632 
L 41.151102 94.594479 
L 41.598397 94.978654 
L 42.045691 95.372913 
L 42.492986 95.777006 
L 42.940281 96.190676 
L 43.387575 96.613662 
L 43.83487 97.045695 
L 44.282164 97.486501 
L 44.729459 97.9358 
L 45.176754 98.393308 
L 45.624048 98.858735 
L 46.071343 99.331785 
L 46.518637 99.812158 
L 46.965932 100.29955 
L 47.413226 100.793651 
L 47.860521 101.294149 
L 48.307816 101.800726 
L 48.75511 102.313061 
L 49.202405 102.830828 
L 49.649699 103.3537 
L 50.096994 103.881345 
L 50.544289 104.413427 
L 50.991583 104.949611 
L 51.438878 105.489555 
L 51.886172 106.032918 
L 52.333467 106.579355 
L 52.780762 107.128519 
L 53.228056 107.680062 
L 53.675351 108.233634 
L 54.122645 108.788884 
L 54.56994 109.345461 
L 55.017234 109.90301 
L 55.464529 110.461179 
L 55.911824 111.019614 
L 56.359118 111.57796 
L 56.806413 112.135864 
L 57.253707 112.692971 
L 57.701002 113.248929 
L 58.148297 113.803384 
L 58.595591 114.355985 
L 59.042886 114.906382 
L 59.49018 115.454226 
L 59.937475 115.999169 
L 60.38477 116.540866 
L 60.832064 117.078972 
L 61.279359 117.613148 
L 61.726653 118.143054 
L 62.173948 118.668353 
L 62.621242 119.188714 
L 63.068537 119.703806 
L 63.515832 120.213302 
L 63.963126 120.716879 
L 64.410421 121.214219 
L 64.857715 121.705004 
L 65.30501 122.188925 
L 65.752305 122.665675 
L 66.199599 123.13495 
L 66.646894 123.596454 
L 67.094188 124.049894 
L 67.541483 124.494982 
L 67.988778 124.931436 
L 68.436072 125.358979 
L 68.883367 125.77734 
L 69.330661 126.186254 
L 69.777956 126.585461 
L 70.225251 126.974709 
L 70.672545 127.35375 
L 71.11984 127.722344 
L 71.567134 128.080258 
L 72.014429 128.427264 
L 72.461723 128.763142 
L 72.909018 129.08768 
L 73.356313 129.400671 
L 73.803607 129.701917 
L 74.250902 129.991227 
L 74.698196 130.268418 
L 75.145491 130.533313 
L 75.592786 130.785745 
L 76.04008 131.025554 
L 76.487375 131.252587 
L 76.934669 131.466701 
L 77.381964 131.66776 
L 77.829259 131.855636 
L 78.276553 132.03021 
L 78.723848 132.191372 
L 79.171142 132.339019 
L 79.618437 132.473058 
L 80.065731 132.593403 
L 80.513026 132.699979 
L 80.960321 132.792717 
L 81.407615 132.871559 
L 81.85491 132.936456 
L 82.302204 132.987365 
L 82.749499 133.024254 
L 83.196794 133.047101 
L 83.644088 133.05589 
L 84.091383 133.050616 
L 84.538677 133.031283 
L 84.985972 132.997902 
L 85.433267 132.950496 
L 85.880561 132.889093 
L 86.327856 132.813732 
L 86.77515 132.724463 
L 87.222445 132.621341 
L 87.669739 132.504431 
L 88.117034 132.373808 
L 88.564329 132.229554 
L 89.011623 132.071762 
L 89.458918 131.900531 
L 89.906212 131.715969 
L 90.353507 131.518195 
L 90.800802 131.307332 
L 91.248096 131.083516 
L 91.695391 130.846887 
L 92.142685 130.597596 
L 92.58998 130.335801 
L 93.037275 130.061668 
L 93.484569 129.775371 
L 93.931864 129.477091 
L 94.379158 129.167018 
L 94.826453 128.845348 
L 95.273747 128.512285 
L 95.721042 128.168041 
L 96.168337 127.812833 
L 96.615631 127.446887 
L 97.062926 127.070436 
L 97.51022 126.683717 
L 97.957515 126.286976 
L 98.40481 125.880464 
L 98.852104 125.46444 
L 99.299399 125.039167 
L 99.746693 124.604915 
L 100.193988 124.16196 
L 100.641283 123.710581 
L 101.088577 123.251066 
L 101.535872 122.783706 
L 101.983166 122.308797 
L 102.430461 121.82664 
L 102.877756 121.337542 
L 103.32505 120.841811 
L 103.772345 120.339764 
L 104.219639 119.831717 
L 104.666934 119.317994 
L 105.114228 118.79892 
L 105.561523 118.274823 
L 106.008818 117.746038 
L 106.456112 117.212898 
L 106.903407 116.675742 
L 107.350701 116.134911 
L 107.797996 115.590747 
L 108.245291 115.043596 
L 108.692585 114.493805 
L 109.13988 113.941722 
L 109.587174 113.387697 
L 110.034469 112.832082 
L 110.481764 112.275229 
L 110.929058 111.717492 
L 111.376353 111.159223 
L 111.823647 110.600777 
L 112.270942 110.042508 
L 112.718236 109.484771 
L 113.165531 108.927918 
L 113.612826 108.372303 
L 114.06012 107.818278 
L 114.507415 107.266195 
L 114.954709 106.716404 
L 115.402004 106.169253 
L 115.849299 105.625089 
L 116.296593 105.084258 
L 116.743888 104.547102 
L 117.191182 104.013962 
L 117.638477 103.485177 
L 118.085772 102.96108 
L 118.533066 102.442006 
L 118.980361 101.928283 
L 119.427655 101.420236 
L 119.87495 100.918189 
L 120.322244 100.422458 
L 120.769539 99.93336 
L 121.216834 99.451203 
L 121.664128 98.976294 
L 122.111423 98.508934 
L 122.558717 98.049419 
L 123.006012 97.59804 
L 123.453307 97.155085 
L 123.900601 96.720833 
L 124.347896 96.29556 
L 124.79519 95.879536 
L 125.242485 95.473024 
L 125.68978 95.076283 
L 126.137074 94.689564 
L 126.584369 94.313113 
L 127.031663 93.947167 
L 127.478958 93.591959 
L 127.926253 93.247715 
L 128.373547 92.914652 
L 128.820842 92.592982 
L 129.268136 92.282909 
L 129.715431 91.984629 
L 130.162725 91.698332 
L 130.61002 91.424199 
L 131.057315 91.162404 
L 131.504609 90.913113 
L 131.951904 90.676484 
L 132.399198 90.452668 
L 132.846493 90.241805 
L 133.293788 90.044031 
L 133.741082 89.859469 
L 134.188377 89.688238 
L 134.635671 89.530446 
L 135.082966 89.386192 
L 135.530261 89.255569 
L 135.977555 89.138659 
L 136.42485 89.035537 
L 136.872144 88.946268 
L 137.319439 88.870907 
L 137.766733 88.809504 
L 138.214028 88.762098 
L 138.661323 88.728717 
L 139.108617 88.709384 
L 139.555912 88.70411 
L 140.003206 88.712899 
L 140.450501 88.735746 
L 140.897796 88.772635 
L 141.34509 88.823544 
L 141.792385 88.888441 
L 142.239679 88.967283 
L 142.686974 89.060021 
L 143.134269 89.166597 
L 143.581563 89.286942 
L 144.028858 89.420981 
L 144.476152 89.568628 
L 144.923447 89.72979 
L 145.370741 89.904364 
L 145.818036 90.09224 
L 146.265331 90.293299 
L 146.712625 90.507413 
L 147.15992 90.734446 
L 147.607214 90.974255 
L 148.054509 91.226687 
L 148.501804 91.491582 
L 148.949098 91.768773 
L 149.396393 92.058083 
L 149.843687 92.359329 
L 150.290982 92.67232 
L 150.738277 92.996858 
L 151.185571 93.332736 
L 151.632866 93.679742 
L 152.08016 94.037656 
L 152.527455 94.40625 
L 152.974749 94.785291 
L 153.422044 95.174539 
L 153.869339 95.573746 
L 154.316633 95.98266 
L 154.763928 96.401021 
L 155.211222 96.828564 
L 155.658517 97.265018 
L 156.105812 97.710106 
L 156.553106 98.163546 
L 157.000401 98.62505 
L 157.447695 99.094325 
L 157.89499 99.571075 
L 158.342285 100.054996 
L 158.789579 100.545781 
L 159.236874 101.043121 
L 159.684168 101.546698 
L 160.131463 102.056194 
L 160.578758 102.571286 
L 161.026052 103.091647 
L 161.473347 103.616946 
L 161.920641 104.146852 
L 162.367936 104.681028 
L 162.81523 105.219134 
L 163.262525 105.760831 
L 163.70982 106.305774 
L 164.157114 106.853618 
L 164.604409 107.404015 
L 165.051703 107.956616 
L 165.498998 108.511071 
L 165.946293 109.067029 
L 166.393587 109.624136 
L 166.840882 110.18204 
L 167.288176 110.740386 
L 167.735471 111.298821 
L 168.182766 111.85699 
L 168.63006 112.414539 
L 169.077355 112.971116 
L 169.524649 113.526366 
L 169.971944 114.079938 
L 170.419238 114.631481 
L 170.866533 115.180645 
L 171.313828 115.727082 
L 171.761122 116.270445 
L 172.208417 116.810389 
L 172.655711 117.346573 
L 173.103006 117.878655 
L 173.550301 118.4063 
L 173.997595 118.929172 
L 174.44489 119.446939 
L 174.892184 119.959274 
L 175.339479 120.465851 
L 175.786774 120.966349 
L 176.234068 121.46045 
L 176.681363 121.947842 
L 177.128657 122.428215 
L 177.575952 122.901265 
L 178.023246 123.366692 
L 178.470541 123.8242 
L 178.917836 124.273499 
L 179.36513 124.714305 
L 179.812425 125.146338 
L 180.259719 125.569324 
L 180.707014 125.982994 
L 181.154309 126.387087 
L 181.601603 126.781346 
L 182.048898 127.165521 
L 182.496192 127.539368 
L 182.943487 127.902651 
L 183.390782 128.255138 
L 183.838076 128.596608 
L 184.285371 128.926842 
L 184.732665 129.245631 
L 185.17996 129.552774 
L 185.627255 129.848076 
L 186.074549 130.131348 
L 186.521844 130.402413 
L 186.969138 130.661097 
L 187.416433 130.907237 
L 187.863727 131.140677 
L 188.311022 131.361268 
L 188.758317 131.56887 
L 189.205611 131.763353 
L 189.652906 131.944593 
L 190.1002 132.112474 
L 190.547495 132.266891 
L 190.99479 132.407745 
L 191.442084 132.534947 
L 191.889379 132.648416 
L 192.336673 132.748081 
L 192.783968 132.833879 
L 193.231263 132.905754 
L 193.678557 132.963661 
L 194.125852 133.007564 
L 194.573146 133.037434 
L 195.020441 133.053253 
L 195.467735 133.055011 
L 195.91503 133.042707 
L 196.362325 133.016348 
L 196.809619 132.975951 
L 197.256914 132.921541 
L 197.704208 132.853154 
L 198.151503 132.770833 
L 198.598798 132.674629 
L 199.046092 132.564605 
L 199.493387 132.440829 
L 199.940681 132.303379 
L 200.387976 132.152345 
L 200.835271 131.98782 
L 201.282565 131.809909 
L 201.72986 131.618726 
L 202.177154 131.414391 
L 202.624449 131.197034 
L 203.071743 130.966793 
L 203.519038 130.723814 
L 203.966333 130.468251 
L 204.413627 130.200266 
L 204.860922 129.920029 
L 205.308216 129.627717 
L 205.755511 129.323517 
L 206.202806 129.00762 
L 206.6501 128.680228 
L 207.097395 128.341547 
L 207.544689 127.991793 
L 207.991984 127.631188 
L 208.439279 127.25996 
L 208.886573 126.878344 
L 209.333868 126.486583 
L 209.781162 126.084925 
L 210.228457 125.673625 
L 210.675752 125.252943 
L 211.123046 124.823147 
L 211.570341 124.384508 
L 212.017635 123.937306 
L 212.46493 123.481823 
L 212.912224 123.018348 
L 213.359519 122.547176 
L 213.806814 122.068605 
L 214.254108 121.582939 
L 214.701403 121.090486 
L 215.148697 120.591557 
L 215.595992 120.08647 
L 216.043287 119.575545 
L 216.490581 119.059105 
L 216.937876 118.537478 
L 217.38517 118.010996 
L 217.832465 117.479991 
L 218.27976 116.944801 
L 218.727054 116.405765 
L 219.174349 115.863224 
L 219.621643 115.317524 
L 220.068938 114.769009 
L 220.516232 114.218028 
L 220.963527 113.66493 
L 221.410822 113.110066 
L 221.858116 112.553788 
L 222.305411 111.996449 
L 222.752705 111.438402 
L 223.2 110.88 
L 223.2 -0 
L 0 -0 
z
" clip-path="url(#pa94944ee93)" style="fill: #ffd447"/>
   </g>
   <g id="patch_4">
    <path d="M 0 221.76 
L 223.2 221.76 
L 223.2 110.88 
L 222.752705 111.438402 
L 222.305411 111.996449 
L 221.858116 112.553788 
L 221.410822 113.110066 
L 220.963527 113.66493 
L 220.516232 114.218028 
L 220.068938 114.769009 
L 219.621643 115.317524 
L 219.174349 115.863224 
L 218.727054 116.405765 
L 218.27976 116.944801 
L 217.832465 117.479991 
L 217.38517 118.010996 
L 216.937876 118.537478 
L 216.490581 119.059105 
L 216.043287 119.575545 
L 215.595992 120.08647 
L 215.148697 120.591557 
L 214.701403 121.090486 
L 214.254108 121.582939 
L 213.806814 122.068605 
L 213.359519 122.547176 
L 212.912224 123.018348 
L 212.46493 123.481823 
L 212.017635 123.937306 
L 211.570341 124.384508 
L 211.123046 124.823147 
L 210.675752 125.252943 
L 210.228457 125.673625 
L 209.781162 126.084925 
L 209.333868 126.486583 
L 208.886573 126.878344 
L 208.439279 127.25996 
L 207.991984 127.631188 
L 207.544689 127.991793 
L 207.097395 128.341547 
L 206.6501 128.680228 
L 206.202806 129.00762 
L 205.755511 129.323517 
L 205.308216 129.627717 
L 204.860922 129.920029 
L 204.413627 130.200266 
L 203.966333 130.468251 
L 203.519038 130.723814 
L 203.071743 130.966793 
L 202.624449 131.197034 
L 202.177154 131.414391 
L 201.72986 131.618726 
L 201.282565 131.809909 
L 200.835271 131.98782 
L 200.387976 132.152345 
L 199.940681 132.303379 
L 199.493387 132.440829 
L 199.046092 132.564605 
L 198.598798 132.674629 
L 198.151503 132.770833 
L 197.704208 132.853154 
L 197.256914 132.921541 
L 196.809619 132.975951 
L 196.362325 133.016348 
L 195.91503 133.042707 
L 195.467735 133.055011 
L 195.020441 133.053253 
L 194.573146 133.037434 
L 194.125852 133.007564 
L 193.678557 132.963661 
L 193.231263 132.905754 
L 192.783968 132.833879 
L 192.336673 132.748081 
L 191.889379 132.648416 
L 191.442084 132.534947 
L 190.99479 132.407745 
L 190.547495 132.266891 
L 190.1002 132.112474 
L 189.652906 131.944593 
L 189.205611 131.763353 
L 188.758317 131.56887 
L 188.311022 131.361268 
L 187.863727 131.140677 
L 187.416433 130.907237 
L 186.969138 130.661097 
L 186.521844 130.402413 
L 186.074549 130.131348 
L 185.627255 129.848076 
L 185.17996 129.552774 
L 184.732665 129.245631 
L 184.285371 128.926842 
L 183.838076 128.596608 
L 183.390782 128.255138 
L 182.943487 127.902651 
L 182.496192 127.539368 
L 182.048898 127.165521 
L 181.601603 126.781346 
L 181.154309 126.387087 
L 180.707014 125.982994 
L 180.259719 125.569324 
L 179.812425 125.146338 
L 179.36513 124.714305 
L 178.917836 124.273499 
L 178.470541 123.8242 
L 178.023246 123.366692 
L 177.575952 122.901265 
L 177.128657 122.428215 
L 176.681363 121.947842 
L 176.234068 121.46045 
L 175.786774 120.966349 
L 175.339479 120.465851 
L 174.892184 119.959274 
L 174.44489 119.446939 
L 173.997595 118.929172 
L 173.550301 118.4063 
L 173.103006 117.878655 
L 172.655711 117.346573 
L 172.208417 116.810389 
L 171.761122 116.270445 
L 171.313828 115.727082 
L 170.866533 115.180645 
L 170.419238 114.631481 
L 169.971944 114.079938 
L 169.524649 113.526366 
L 169.077355 112.971116 
L 168.63006 112.414539 
L 168.182766 111.85699 
L 167.735471 111.298821 
L 167.288176 110.740386 
L 166.840882 110.18204 
L 166.393587 109.624136 
L 165.946293 109.067029 
L 165.498998 108.511071 
L 165.051703 107.956616 
L 164.604409 107.404015 
L 164.157114 106.853618 
L 163.70982 106.305774 
L 163.262525 105.760831 
L 162.81523 105.219134 
L 162.367936 104.681028 
L 161.920641 104.146852 
L 161.473347 103.616946 
L 161.026052 103.091647 
L 160.578758 102.571286 
L 160.131463 102.056194 
L 159.684168 101.546698 
L 159.236874 101.043121 
L 158.789579 100.545781 
L 158.342285 100.054996 
L 157.89499 99.571075 
L 157.447695 99.094325 
L 157.000401 98.62505 
L 156.553106 98.163546 
L 156.105812 97.710106 
L 155.658517 97.265018 
L 155.211222 96.828564 
L 154.763928 96.401021 
L 154.316633 95.98266 
L 153.869339 95.573746 
L 153.422044 95.174539 
L 152.974749 94.785291 
L 152.527455 94.40625 
L 152.08016 94.037656 
L 151.632866 93.679742 
L 151.185571 93.332736 
L 150.738277 92.996858 
L 150.290982 92.67232 
L 149.843687 92.359329 
L 149.396393 92.058083 
L 148.949098 91.768773 
L 148.501804 91.491582 
L 148.054509 91.226687 
L 147.607214 90.974255 
L 147.15992 90.734446 
L 146.712625 90.507413 
L 146.265331 90.293299 
L 145.818036 90.09224 
L 145.370741 89.904364 
L 144.923447 89.72979 
L 144.476152 89.568628 
L 144.028858 89.420981 
L 143.581563 89.286942 
L 143.134269 89.166597 
L 142.686974 89.060021 
L 142.239679 88.967283 
L 141.792385 88.888441 
L 141.34509 88.823544 
L 140.897796 88.772635 
L 140.450501 88.735746 
L 140.003206 88.712899 
L 139.555912 88.70411 
L 139.108617 88.709384 
L 138.661323 88.728717 
L 138.214028 88.762098 
L 137.766733 88.809504 
L 137.319439 88.870907 
L 136.872144 88.946268 
L 136.42485 89.035537 
L 135.977555 89.138659 
L 135.530261 89.255569 
L 135.082966 89.386192 
L 134.635671 89.530446 
L 134.188377 89.688238 
L 133.741082 89.859469 
L 133.293788 90.044031 
L 132.846493 90.241805 
L 132.399198 90.452668 
L 131.951904 90.676484 
L 131.504609 90.913113 
L 131.057315 91.162404 
L 130.61002 91.424199 
L 130.162725 91.698332 
L 129.715431 91.984629 
L 129.268136 92.282909 
L 128.820842 92.592982 
L 128.373547 92.914652 
L 127.926253 93.247715 
L 127.478958 93.591959 
L 127.031663 93.947167 
L 126.584369 94.313113 
L 126.137074 94.689564 
L 125.68978 95.076283 
L 125.242485 95.473024 
L 124.79519 95.879536 
L 124.347896 96.29556 
L 123.900601 96.720833 
L 123.453307 97.155085 
L 123.006012 97.59804 
L 122.558717 98.049419 
L 122.111423 98.508934 
L 121.664128 98.976294 
L 121.216834 99.451203 
L 120.769539 99.93336 
L 120.322244 100.422458 
L 119.87495 100.918189 
L 119.427655 101.420236 
L 118.980361 101.928283 
L 118.533066 102.442006 
L 118.085772 102.96108 
L 117.638477 103.485177 
L 117.191182 104.013962 
L 116.743888 104.547102 
L 116.296593 105.084258 
L 115.849299 105.625089 
L 115.402004 106.169253 
L 114.954709 106.716404 
L 114.507415 107.266195 
L 114.06012 107.818278 
L 113.612826 108.372303 
L 113.165531 108.927918 
L 112.718236 109.484771 
L 112.270942 110.042508 
L 111.823647 110.600777 
L 111.376353 111.159223 
L 110.929058 111.717492 
L 110.481764 112.275229 
L 110.034469 112.832082 
L 109.587174 113.387697 
L 109.13988 113.941722 
L 108.692585 114.493805 
L 108.245291 115.043596 
L 107.797996 115.590747 
L 107.350701 116.134911 
L 106.903407 116.675742 
L 106.456112 117.212898 
L 106.008818 117.746038 
L 105.561523 118.274823 
L 105.114228 118.79892 
L 104.666934 119.317994 
L 104.219639 119.831717 
L 103.772345 120.339764 
L 103.32505 120.841811 
L 102.877756 121.337542 
L 102.430461 121.82664 
L 101.983166 122.308797 
L 101.535872 122.783706 
L 101.088577 123.251066 
L 100.641283 123.710581 
L 100.193988 124.16196 
L 99.746693 124.604915 
L 99.299399 125.039167 
L 98.852104 125.46444 
L 98.40481 125.880464 
L 97.957515 126.286976 
L 97.51022 126.683717 
L 97.062926 127.070436 
L 96.615631 127.446887 
L 96.168337 127.812833 
L 95.721042 128.168041 
L 95.273747 128.512285 
L 94.826453 128.845348 
L 94.379158 129.167018 
L 93.931864 129.477091 
L 93.484569 129.775371 
L 93.037275 130.061668 
L 92.58998 130.335801 
L 92.142685 130.597596 
L 91.695391 130.846887 
L 91.248096 131.083516 
L 90.800802 131.307332 
L 90.353507 131.518195 
L 89.906212 131.715969 
L 89.458918 131.900531 
L 89.011623 132.071762 
L 88.564329 132.229554 
L 88.117034 132.373808 
L 87.669739 132.504431 
L 87.222445 132.621341 
L 86.77515 132.724463 
L 86.327856 132.813732 
L 85.880561 132.889093 
L 85.433267 132.950496 
L 84.985972 132.997902 
L 84.538677 133.031283 
L 84.091383 133.050616 
L 83.644088 133.05589 
L 83.196794 133.047101 
L 82.749499 133.024254 
L 82.302204 132.987365 
L 81.85491 132.936456 
L 81.407615 132.871559 
L 80.960321 132.792717 
L 80.513026 132.699979 
L 80.065731 132.593403 
L 79.618437 132.473058 
L 79.171142 132.339019 
L 78.723848 132.191372 
L 78.276553 132.03021 
L 77.829259 131.855636 
L 77.381964 131.66776 
L 76.934669 131.466701 
L 76.487375 131.252587 
L 76.04008 131.025554 
L 75.592786 130.785745 
L 75.145491 130.533313 
L 74.698196 130.268418 
L 74.250902 129.991227 
L 73.803607 129.701917 
L 73.356313 129.400671 
L 72.909018 129.08768 
L 72.461723 128.763142 
L 72.014429 128.427264 
L 71.567134 128.080258 
L 71.11984 127.722344 
L 70.672545 127.35375 
L 70.225251 126.974709 
L 69.777956 126.585461 
L 69.330661 126.186254 
L 68.883367 125.77734 
L 68.436072 125.358979 
L 67.988778 124.931436 
L 67.541483 124.494982 
L 67.094188 124.049894 
L 66.646894 123.596454 
L 66.199599 123.13495 
L 65.752305 122.665675 
L 65.30501 122.188925 
L 64.857715 121.705004 
L 64.410421 121.214219 
L 63.963126 120.716879 
L 63.515832 120.213302 
L 63.068537 119.703806 
L 62.621242 119.188714 
L 62.173948 118.668353 
L 61.726653 118.143054 
L 61.279359 117.613148 
L 60.832064 117.078972 
L 60.38477 116.540866 
L 59.937475 115.999169 
L 59.49018 115.454226 
L 59.042886 114.906382 
L 58.595591 114.355985 
L 58.148297 113.803384 
L 57.701002 113.248929 
L 57.253707 112.692971 
L 56.806413 112.135864 
L 56.359118 111.57796 
L 55.911824 111.019614 
L 55.464529 110.461179 
L 55.017234 109.90301 
L 54.56994 109.345461 
L 54.122645 108.788884 
L 53.675351 108.233634 
L 53.228056 107.680062 
L 52.780762 107.128519 
L 52.333467 106.579355 
L 51.886172 106.032918 
L 51.438878 105.489555 
L 50.991583 104.949611 
L 50.544289 104.413427 
L 50.096994 103.881345 
L 49.649699 103.3537 
L 49.202405 102.830828 
L 48.75511 102.313061 
L 48.307816 101.800726 
L 47.860521 101.294149 
L 47.413226 100.793651 
L 46.965932 100.29955 
L 46.518637 99.812158 
L 46.071343 99.331785 
L 45.624048 98.858735 
L 45.176754 98.393308 
L 44.729459 97.9358 
L 44.282164 97.486501 
L 43.83487 97.045695 
L 43.387575 96.613662 
L 42.940281 96.190676 
L 42.492986 95.777006 
L 42.045691 95.372913 
L 41.598397 94.978654 
L 41.151102 94.594479 
L 40.703808 94.220632 
L 40.256513 93.857349 
L 39.809218 93.504862 
L 39.361924 93.163392 
L 38.914629 92.833158 
L 38.467335 92.514369 
L 38.02004 92.207226 
L 37.572745 91.911924 
L 37.125451 91.628652 
L 36.678156 91.357587 
L 36.230862 91.098903 
L 35.783567 90.852763 
L 35.336273 90.619323 
L 34.888978 90.398732 
L 34.441683 90.19113 
L 33.994389 89.996647 
L 33.547094 89.815407 
L 33.0998 89.647526 
L 32.652505 89.493109 
L 32.20521 89.352255 
L 31.757916 89.225053 
L 31.310621 89.111584 
L 30.863327 89.011919 
L 30.416032 88.926121 
L 29.968737 88.854246 
L 29.521443 88.796339 
L 29.074148 88.752436 
L 28.626854 88.722566 
L 28.179559 88.706747 
L 27.732265 88.704989 
L 27.28497 88.717293 
L 26.837675 88.743652 
L 26.390381 88.784049 
L 25.943086 88.838459 
L 25.495792 88.906846 
L 25.048497 88.989167 
L 24.601202 89.085371 
L 24.153908 89.195395 
L 23.706613 89.319171 
L 23.259319 89.456621 
L 22.812024 89.607655 
L 22.364729 89.77218 
L 21.917435 89.950091 
L 21.47014 90.141274 
L 21.022846 90.345609 
L 20.575551 90.562966 
L 20.128257 90.793207 
L 19.680962 91.036186 
L 19.233667 91.291749 
L 18.786373 91.559734 
L 18.339078 91.839971 
L 17.891784 92.132283 
L 17.444489 92.436483 
L 16.997194 92.75238 
L 16.5499 93.079772 
L 16.102605 93.418453 
L 15.655311 93.768207 
L 15.208016 94.128812 
L 14.760721 94.50004 
L 14.313427 94.881656 
L 13.866132 95.273417 
L 13.418838 95.675075 
L 12.971543 96.086375 
L 12.524248 96.507057 
L 12.076954 96.936853 
L 11.629659 97.375492 
L 11.182365 97.822694 
L 10.73507 98.278177 
L 10.287776 98.741652 
L 9.840481 99.212824 
L 9.393186 99.691395 
L 8.945892 100.177061 
L 8.498597 100.669514 
L 8.051303 101.168443 
L 7.604008 101.67353 
L 7.156713 102.184455 
L 6.709419 102.700895 
L 6.262124 103.222522 
L 5.81483 103.749004 
L 5.367535 104.280009 
L 4.92024 104.815199 
L 4.472946 105.354235 
L 4.025651 105.896776 
L 3.578357 106.442476 
L 3.131062 106.990991 
L 2.683768 107.541972 
L 2.236473 108.09507 
L 1.789178 108.649934 
L 1.341884 109.206212 
L 0.894589 109.763551 
L 0.447295 110.321598 
L 0 110.88 
z
" clip-path="url(#pa94944ee93)" style="fill: #2ca7a1"/>
   </g>
  </g>
 </g>
 <defs>
  <clipPath id="pde3a95ea78">
   <rect x="0" y="-0" width="223.2" height="221.76"/>
  </clipPath>
  <clipPath id="pa94944ee93">
   <path d="M 111.6 217.3248 
C 140.012799 217.3248 167.265709 206.109104 187.356592 186.14784 
C 207.447475 166.186575 218.736 139.109491 218.736 110.88 
C 218.736 82.650509 207.447475 55.573425 187.356592 35.61216 
C 167.265709 15.650896 140.012799 4.4352 111.6 4.4352 
C 83.187201 4.4352 55.934291 15.650896 35.843408 35.61216 
C 15.752525 55.573425 4.464 82.650509 4.464 110.88 
C 4.464 139.109491 15.752525 166.186575 35.843408 186.14784 
C 55.934291 206.109104 83.187201 217.3248 111.6 217.3248 
z
"/>
  </clipPath>
 </defs>
</svg>
